<svg id="Layer_1" data-name="Layer 1" xmlns="http://www.w3.org/2000/svg" viewBox="0 0 87.27 23.86"><defs><style>.cls-1{fill:#a8a8a8;}</style></defs><title>platypi</title><path class="cls-1" d="M376.15,171a0.59,0.59,0,0,1,.61-0.58,0.61,0.61,0,0,1,.65.56,0.59,0.59,0,0,1-.61.58A0.61,0.61,0,0,1,376.15,171Zm-2.3,7.54,1,1.88c-0.56-3.65,1.48-5.35,4-5.32,1.21,0,3.94,1.09,5.14,1.13,3.51,0.11,6.25-6.32,2.5-5.61-1.93.37-5.38,0.95-7-.4-7.47-6.88-20.26-.13-18.89,10.62,0.79,6.22,5.33,11,12.66,10.41a11.13,11.13,0,0,0,6.86-2.95,9.8,9.8,0,0,0,3.3-7.52,2.62,2.62,0,0,0-.85-2c-3.52-2.53-6.25.15-6.81,3.28-0.77,4.34-3.73,8-7.31,6.34-1.49-.69-2.49-2-1.66-3.54,1.08-1.93,3.94.14,5.37-.41-6.73-2.94-.54-10.06,1.67-5.87h0Z" transform="translate(-360.51 -167.42)"/><path class="cls-1" d="M446.5,175.05v9.82h1.27v-9.82H446.5Zm-42.09,4.88a5,5,0,0,0-1.48-3.63,4.84,4.84,0,0,0-3.6-1.51,4.62,4.62,0,0,0-3.9,2.06v-1.81h-1.25v13.42h1.25v-5.28a4.91,4.91,0,0,0,3.94,1.94A4.76,4.76,0,0,0,403,183.6a5.09,5.09,0,0,0,1.45-3.66h0Zm-3.22-3.4a3.76,3.76,0,0,1,1.42,1.46,4,4,0,0,1,.52,2,4.1,4.1,0,0,1-1.93,3.45,3.73,3.73,0,0,1-2,.54,4,4,0,0,1-2-.52,3.65,3.65,0,0,1-1.94-3.43,4,4,0,0,1,1.11-2.84,3.69,3.69,0,0,1,2.79-1.16,3.86,3.86,0,0,1,2,.52h0Zm4.09-5.28v13.62h1.27V171.26h-1.27Zm7.22,3.54a4.84,4.84,0,0,0-3.6,1.51,5,5,0,0,0-1.48,3.63,5.08,5.08,0,0,0,1.45,3.66,4.76,4.76,0,0,0,3.59,1.53,4.92,4.92,0,0,0,3.94-1.94v1.69h1.25v-9.82h-1.25v1.81a4.6,4.6,0,0,0-3.91-2.06h0Zm0.1,1.22a3.69,3.69,0,0,1,2.79,1.16,4,4,0,0,1,1.11,2.84,4,4,0,0,1-.5,2,3.67,3.67,0,0,1-1.43,1.42,4,4,0,0,1-2,.52,3.74,3.74,0,0,1-1.93-.53,3.9,3.9,0,0,1-1.43-1.47,4,4,0,0,1,0-4,3.62,3.62,0,0,1,3.37-2h0Zm6.1-1v1.08h1.73v8.74h1.27v-8.74h2.48L423.7,175h-2v-3.65h-1.27V175H418.7Zm6.07,0,4,9.09-1.9,4.32h1.33l5.86-13.42h-1.34l-3.28,7.56-3.38-7.56h-1.33Zm20.58,4.88a5,5,0,0,0-1.48-3.63,4.84,4.84,0,0,0-3.6-1.51,4.62,4.62,0,0,0-3.9,2.06v-1.81h-1.25v13.42h1.25v-5.28a4.91,4.91,0,0,0,3.93,1.94,4.77,4.77,0,0,0,3.59-1.53,5.09,5.09,0,0,0,1.45-3.66h0Zm-3.22-3.4a3.76,3.76,0,0,1,1.42,1.46,4,4,0,0,1,.52,2,4.1,4.1,0,0,1-1.93,3.45,3.73,3.73,0,0,1-2,.54,4,4,0,0,1-2-.52,3.65,3.65,0,0,1-1.94-3.43,4,4,0,0,1,1.11-2.84,3.69,3.69,0,0,1,2.79-1.16A3.86,3.86,0,0,1,442.13,176.54Z" transform="translate(-360.51 -167.42)"/></svg>